<svg width="256" height="156" viewBox="0 0 256 156" fill="none" xmlns="http://www.w3.org/2000/svg">
<path d="M5.52135 74V19.0933H25.1528C27.9646 19.0933 30.5464 19.5278 32.898 20.3969C35.3008 21.266 37.3714 22.493 39.1096 24.0778C40.8478 25.6115 42.2025 27.4775 43.1739 29.6758C44.1452 31.8742 44.6309 34.3025 44.6309 36.961C44.6309 39.6194 44.1452 42.0478 43.1739 44.2461C42.2025 46.4444 40.8478 48.336 39.1096 49.9208C37.3714 51.4545 35.3008 52.6559 32.898 53.525C30.5464 54.3941 27.9646 54.8287 25.1528 54.8287H17.4843V74H5.52135ZM25.5362 43.4792C28.0413 43.4792 29.9073 42.8657 31.1343 41.6388C32.3612 40.4118 32.9747 38.8525 32.9747 36.961C32.9747 35.0694 32.3612 33.5101 31.1343 32.2831C29.9073 31.0562 28.0413 30.4427 25.5362 30.4427H17.4843V43.4792H25.5362ZM99.5131 65.1045C93.8895 71.8528 86.5533 75.227 77.5044 75.227C73.4145 75.227 69.6058 74.4857 66.0782 73.0031C62.5507 71.5205 59.4833 69.5011 56.876 66.9449C54.3198 64.3376 52.3004 61.2958 50.8179 57.8194C49.3353 54.343 48.594 50.5854 48.594 46.5466C48.594 42.5079 49.3353 38.7503 50.8179 35.2739C52.3004 31.7975 54.3198 28.7812 56.876 26.225C59.4833 23.6177 62.5507 21.5728 66.0782 20.0902C69.6058 18.6076 73.4145 17.8663 77.5044 17.8663C82.0033 17.8663 85.8886 18.6331 89.1606 20.1669C92.4836 21.7006 95.4999 23.9244 98.2094 26.8385L89.8507 34.9671C88.4193 33.3312 86.7066 31.9764 84.7128 30.9028C82.719 29.7781 80.3417 29.2157 77.5811 29.2157C75.1783 29.2157 72.9288 29.6247 70.8327 30.4427C68.7878 31.2607 66.9985 32.4365 65.4648 33.9702C63.9311 35.5039 62.7297 37.3444 61.8606 39.4916C60.9915 41.5876 60.5569 43.9393 60.5569 46.5466C60.5569 49.1539 60.9915 51.5312 61.8606 53.6784C62.7297 55.7744 63.9311 57.5893 65.4648 59.123C66.9985 60.6567 68.7878 61.8326 70.8327 62.6506C72.9288 63.4685 75.1783 63.8775 77.5811 63.8775C80.4951 63.8775 83.0257 63.2896 85.1729 62.1138C87.3201 60.9379 89.2628 59.2508 91.001 57.0525L99.5131 65.1045ZM124.668 19.0933H145.373C148.339 19.0933 150.997 19.5534 153.349 20.4736C155.7 21.3427 157.669 22.5697 159.253 24.1545C160.889 25.7393 162.116 27.6309 162.934 29.8292C163.803 31.9764 164.238 34.3281 164.238 36.8843C164.238 38.6736 163.931 40.3351 163.318 41.8688C162.755 43.4025 161.963 44.834 160.94 46.1632C159.969 47.4413 158.819 48.5916 157.49 49.614C156.16 50.5854 154.729 51.4034 153.195 52.068V52.7581L167.535 73.2331V74H153.885L140.005 54.2152H136.631V74H124.668V19.0933ZM145.373 43.1725C147.521 43.1725 149.208 42.559 150.435 41.332C151.662 40.0539 152.275 38.4947 152.275 36.6542C152.275 34.8138 151.687 33.2801 150.511 32.0531C149.387 30.775 147.674 30.136 145.373 30.136H136.631V43.1725H145.373ZM173.795 19.0933H185.758V74H173.795V19.0933ZM222.263 43.4792H249.333C249.486 44.0927 249.614 44.8851 249.716 45.8565C249.87 46.8278 249.946 47.748 249.946 48.6171C249.946 52.5025 249.384 55.9534 248.259 58.9697C247.135 61.986 245.499 64.6444 243.352 66.9449C240.898 69.5522 237.932 71.5972 234.456 73.0798C230.98 74.5112 227.018 75.227 222.57 75.227C218.582 75.227 214.799 74.5112 211.22 73.0798C207.693 71.6483 204.6 69.6801 201.941 67.175C199.283 64.6188 197.187 61.6025 195.653 58.1261C194.119 54.5986 193.353 50.7388 193.353 46.5466C193.353 42.3545 194.119 38.5202 195.653 35.0438C197.187 31.5163 199.283 28.5 201.941 25.9949C204.6 23.4388 207.693 21.4449 211.22 20.0135C214.799 18.582 218.582 17.8663 222.57 17.8663C227.222 17.8663 231.261 18.6587 234.686 20.2435C238.162 21.8284 241.204 24.0011 243.812 26.7618L235.683 34.7371C233.894 32.9477 231.977 31.593 229.932 30.6728C227.938 29.7014 225.433 29.2157 222.416 29.2157C220.065 29.2157 217.841 29.6503 215.745 30.5194C213.7 31.3374 211.885 32.5132 210.3 34.0469C208.766 35.5295 207.539 37.3444 206.619 39.4916C205.75 41.5876 205.316 43.9393 205.316 46.5466C205.316 49.1539 205.75 51.5312 206.619 53.6784C207.539 55.7744 208.792 57.5893 210.377 59.123C211.962 60.6056 213.802 61.7815 215.898 62.6506C217.994 63.4685 220.244 63.8775 222.646 63.8775C227.35 63.8775 231.107 62.625 233.919 60.1199C234.788 59.3531 235.581 58.4073 236.296 57.2826C237.063 56.1067 237.677 54.8287 238.137 53.4483H222.263V43.4792Z" fill="black"/>
<path d="M5.54718 90.7224H22.2564C24.0152 90.7224 25.6614 91.0381 27.1947 91.6695C28.7732 92.2558 30.1487 93.1126 31.3213 94.2401C32.4939 95.3225 33.4184 96.6078 34.0949 98.0961C34.8165 99.5843 35.1773 101.208 35.1773 102.967C35.1773 105.537 34.5008 107.747 33.1478 109.596C31.8399 111.445 30.1036 112.911 27.9389 113.993V114.264C30.5546 115.076 32.6743 116.542 34.2978 118.661C35.9665 120.781 36.8008 123.216 36.8008 125.967C36.8008 127.907 36.44 129.688 35.7184 131.312C34.9969 132.935 34.0047 134.333 32.7419 135.506C31.5242 136.633 30.0811 137.535 28.4124 138.212C26.7437 138.843 24.9623 139.159 23.0682 139.159H5.54718V90.7224ZM22.1211 113.249C23.6544 113.249 25.0525 112.979 26.3153 112.438C27.6232 111.896 28.7506 111.175 29.6977 110.273C30.6448 109.371 31.3889 108.311 31.9301 107.093C32.4713 105.831 32.7419 104.5 32.7419 103.102C32.7419 101.704 32.4713 100.396 31.9301 99.1785C31.3889 97.9608 30.6448 96.901 29.6977 95.999C28.7957 95.0519 27.7134 94.3303 26.4506 93.8342C25.1878 93.293 23.8348 93.0224 22.3917 93.0224H7.98253V113.249H22.1211ZM23.7446 136.859C25.0525 136.859 26.3378 136.611 27.6006 136.115C28.9085 135.618 30.0585 134.919 31.0507 134.017C32.0429 133.07 32.8321 131.943 33.4184 130.635C34.0498 129.327 34.3655 127.861 34.3655 126.238C34.3655 124.614 34.0498 123.149 33.4184 121.841C32.8321 120.533 32.0203 119.428 30.983 118.526C29.9909 117.579 28.8408 116.857 27.533 116.361C26.2251 115.82 24.8721 115.549 23.4741 115.549H7.98253V136.859H23.7446ZM60.4831 140.241C57.9125 140.241 55.5673 139.79 53.4476 138.888C51.3731 137.986 49.5917 136.723 48.1034 135.1C46.6602 133.476 45.5328 131.537 44.721 129.282C43.9092 126.982 43.5033 124.456 43.5033 121.705V90.7224H45.9387V121.976C45.9387 124.231 46.2769 126.351 46.9534 128.335C47.6299 130.274 48.5995 131.965 49.8623 133.409C51.125 134.807 52.6584 135.912 54.4624 136.723C56.2663 137.535 58.2732 137.941 60.4831 137.941C62.693 137.941 64.6773 137.535 66.4362 136.723C68.2401 135.912 69.7735 134.807 71.0363 133.409C72.299 131.965 73.2687 130.274 73.9452 128.335C74.6667 126.351 75.0275 124.231 75.0275 121.976V90.7224H77.4629V121.705C77.4629 124.456 77.0795 126.982 76.3129 129.282C75.5462 131.537 74.4187 133.476 72.9304 135.1C71.4873 136.723 69.7059 137.986 67.5862 138.888C65.5116 139.79 63.1439 140.241 60.4831 140.241ZM87.2672 90.7224H89.7025V139.159H87.2672V90.7224ZM100.81 90.7224H103.245V136.859H126.111V139.159H100.81V90.7224ZM133.511 90.7224H146.838C150.671 90.7224 154.076 91.3087 157.053 92.4812C160.075 93.6538 162.6 95.2999 164.63 97.4196C166.704 99.5392 168.283 102.087 169.365 105.064C170.447 108.04 170.989 111.333 170.989 114.941C170.989 118.548 170.447 121.841 169.365 124.817C168.283 127.794 166.704 130.342 164.63 132.462C162.6 134.581 160.075 136.227 157.053 137.4C154.076 138.572 150.671 139.159 146.838 139.159H133.511V90.7224ZM146.838 136.859C150.085 136.859 153.039 136.363 155.7 135.37C158.406 134.378 160.706 132.958 162.6 131.109C164.494 129.214 165.96 126.914 166.997 124.208C168.035 121.502 168.553 118.413 168.553 114.941C168.553 111.468 168.035 108.379 166.997 105.673C165.96 102.967 164.494 100.689 162.6 98.8402C160.706 96.9461 158.406 95.5029 155.7 94.5107C153.039 93.5185 150.085 93.0224 146.838 93.0224H135.947V136.859H146.838ZM181.794 93.0224V113.791H203.577V116.091H181.794V136.859H205.742V139.159H179.359V90.7224H205.742V93.0224H181.794ZM215.297 90.7224H230.857C232.886 90.7224 234.758 91.0606 236.471 91.7371C238.185 92.4136 239.673 93.3607 240.936 94.5783C242.244 95.796 243.259 97.2617 243.98 98.9755C244.702 100.689 245.063 102.561 245.063 104.59C245.063 106.304 244.747 107.905 244.116 109.393C243.484 110.882 242.627 112.212 241.545 113.385C240.463 114.512 239.177 115.482 237.689 116.294C236.201 117.06 234.6 117.647 232.886 118.052L232.751 118.255L246.822 138.888V139.159H244.251L230.045 118.458H217.733V139.159H215.297V90.7224ZM229.909 116.158C231.578 116.158 233.179 115.888 234.712 115.346C236.246 114.76 237.599 113.971 238.771 112.979C239.944 111.941 240.869 110.724 241.545 109.326C242.267 107.883 242.627 106.304 242.627 104.59C242.627 102.741 242.289 101.095 241.613 99.652C240.936 98.2088 240.012 97.0137 238.839 96.0666C237.712 95.0744 236.404 94.3303 234.915 93.8342C233.472 93.293 231.984 93.0224 230.451 93.0224H217.733V116.158H229.909Z" fill="black"/>
</svg>
