<svg width="256" height="256" viewBox="0 0 256 256" fill="none" xmlns="http://www.w3.org/2000/svg">
<path fill-rule="evenodd" clip-rule="evenodd" d="M256 128C256 198.692 198.692 256 128 256C57.3076 256 0 198.692 0 128C0 57.3076 57.3076 0 128 0C198.692 0 256 57.3076 256 128ZM35.2044 125V83.1891H50.1536C52.2947 83.1891 54.2607 83.52 56.0515 84.1818C57.8812 84.8436 59.4579 85.778 60.7815 86.9848C62.1051 88.1527 63.1367 89.5737 63.8764 91.2476C64.6161 92.9216 64.9859 94.7708 64.9859 96.7952C64.9859 98.8195 64.6161 100.669 63.8764 102.343C63.1367 104.017 62.1051 105.457 60.7815 106.664C59.4579 107.832 57.8812 108.747 56.0515 109.409C54.2607 110.07 52.2947 110.401 50.1536 110.401H44.3141V125H35.2044ZM50.4456 101.759C52.3531 101.759 53.7741 101.292 54.7084 100.357C55.6427 99.423 56.1099 98.2356 56.1099 96.7952C56.1099 95.3547 55.6427 94.1674 54.7084 93.2331C53.7741 92.2988 52.3531 91.8316 50.4456 91.8316H44.3141V101.759H50.4456ZM106.778 118.226C102.496 123.365 96.9093 125.934 90.0187 125.934C86.9043 125.934 84.004 125.37 81.3179 124.241C78.6317 123.112 76.2959 121.574 74.3105 119.628C72.364 117.642 70.8262 115.326 69.6972 112.679C68.5683 110.031 68.0038 107.17 68.0038 104.095C68.0038 101.019 68.5683 98.1577 69.6972 95.5105C70.8262 92.8632 72.364 90.5663 74.3105 88.6199C76.2959 86.6345 78.6317 85.0772 81.3179 83.9482C84.004 82.8193 86.9043 82.2548 90.0187 82.2548C93.4446 82.2548 96.4033 82.8387 98.8948 84.0067C101.425 85.1746 103.722 86.868 105.785 89.087L99.4203 95.2769C98.3303 94.0311 97.0261 92.9995 95.5079 92.1819C93.9896 91.3255 92.1794 90.8973 90.0771 90.8973C88.2474 90.8973 86.5345 91.2087 84.9384 91.8316C83.3811 92.4545 82.0186 93.3499 80.8507 94.5178C79.6828 95.6857 78.7679 97.0872 78.1061 98.7222C77.4443 100.318 77.1134 102.109 77.1134 104.095C77.1134 106.08 77.4443 107.89 78.1061 109.525C78.7679 111.121 79.6828 112.503 80.8507 113.671C82.0186 114.839 83.3811 115.735 84.9384 116.358C86.5345 116.98 88.2474 117.292 90.0771 117.292C92.2961 117.292 94.2232 116.844 95.8582 115.949C97.4933 115.053 98.9726 113.769 100.296 112.095L106.778 118.226ZM125.934 83.1891H141.7C143.958 83.1891 145.982 83.5395 147.773 84.2402C149.564 84.902 151.063 85.8364 152.27 87.0432C153.515 88.25 154.45 89.6904 155.073 91.3644C155.734 92.9995 156.065 94.7903 156.065 96.7368C156.065 98.0993 155.832 99.3646 155.365 100.532C154.936 101.7 154.333 102.79 153.554 103.803C152.815 104.776 151.939 105.652 150.927 106.43C149.914 107.17 148.824 107.793 147.656 108.299V108.825L158.576 124.416V125H148.182L137.613 109.934H135.043V125H125.934V83.1891ZM141.7 101.525C143.335 101.525 144.62 101.058 145.554 100.124C146.489 99.1505 146.956 97.9631 146.956 96.5616C146.956 95.1601 146.508 93.9922 145.613 93.0579C144.756 92.0847 143.452 91.598 141.7 91.598H135.043V101.525H141.7ZM163.343 83.1891H172.452V125H163.343V83.1891ZM200.251 101.759H220.864C220.981 102.226 221.078 102.829 221.156 103.569C221.273 104.309 221.331 105.009 221.331 105.671C221.331 108.63 220.903 111.258 220.047 113.555C219.19 115.851 217.945 117.876 216.309 119.628C214.441 121.613 212.183 123.17 209.536 124.299C206.888 125.389 203.871 125.934 200.484 125.934C197.448 125.934 194.567 125.389 191.842 124.299C189.156 123.209 186.801 121.71 184.776 119.803C182.752 117.856 181.156 115.559 179.988 112.912C178.82 110.226 178.236 107.287 178.236 104.095C178.236 100.902 178.82 97.9825 179.988 95.3353C181.156 92.6491 182.752 90.3522 184.776 88.4447C186.801 86.4982 189.156 84.9799 191.842 83.8898C194.567 82.7998 197.448 82.2548 200.484 82.2548C204.027 82.2548 207.103 82.8582 209.711 84.0651C212.358 85.2719 214.674 86.9264 216.66 89.0286L210.47 95.1017C209.107 93.7391 207.648 92.7075 206.09 92.0068C204.572 91.2671 202.665 90.8973 200.368 90.8973C198.577 90.8973 196.883 91.2281 195.287 91.89C193.73 92.5129 192.348 93.4083 191.141 94.5762C189.973 95.7051 189.039 97.0872 188.338 98.7222C187.676 100.318 187.346 102.109 187.346 104.095C187.346 106.08 187.676 107.89 188.338 109.525C189.039 111.121 189.993 112.503 191.2 113.671C192.406 114.8 193.808 115.696 195.404 116.358C197 116.98 198.713 117.292 200.543 117.292C204.124 117.292 206.986 116.338 209.127 114.43C209.789 113.847 210.392 113.126 210.937 112.27C211.521 111.374 211.988 110.401 212.339 109.35H200.251V101.759ZM47.948 137.587H35.2241V174.471H48.5662C50.0085 174.471 51.3651 174.231 52.6357 173.75C53.9064 173.235 55.0053 172.548 55.9326 171.689C56.8942 170.796 57.6497 169.732 58.1992 168.495C58.7487 167.259 59.0234 165.903 59.0234 164.426C59.0234 162.331 58.3881 160.477 57.1174 158.862C55.8811 157.248 54.267 156.132 52.2751 155.514V155.308C53.9236 154.484 55.2458 153.368 56.2417 151.96C57.2719 150.552 57.7871 148.869 57.7871 146.911C57.7871 145.572 57.5124 144.336 56.9629 143.202C56.4477 142.069 55.7437 141.09 54.8508 140.266C53.9579 139.407 52.9105 138.755 51.7085 138.309C50.5408 137.828 49.2874 137.587 47.948 137.587ZM51.0388 154.123C50.0772 154.535 49.0126 154.741 47.845 154.741H37.0786V139.339H48.051C49.15 139.339 50.1802 139.545 51.1418 139.957C52.1034 140.335 52.9276 140.884 53.6145 141.605C54.3357 142.292 54.9023 143.099 55.3144 144.026C55.7265 144.954 55.9326 145.95 55.9326 147.014C55.9326 148.079 55.7265 149.092 55.3144 150.054C54.9023 150.981 54.3357 151.788 53.6145 152.475C52.8933 153.162 52.0347 153.711 51.0388 154.123ZM52.0176 172.153C51.056 172.531 50.0772 172.72 49.0813 172.72H37.0786V156.493H48.8752C49.9398 156.493 50.9701 156.699 51.9661 157.111C52.962 157.489 53.8377 158.038 54.5932 158.759C55.3831 159.446 56.0013 160.288 56.4477 161.284C56.9285 162.28 57.1689 163.396 57.1689 164.632C57.1689 165.868 56.9285 166.984 56.4477 167.98C56.0013 168.976 55.4003 169.835 54.6447 170.556C53.8892 171.243 53.0135 171.775 52.0176 172.153ZM71.6998 174.265C73.3139 174.952 75.0997 175.295 77.0572 175.295C79.0834 175.295 80.8864 174.952 82.4662 174.265C84.0802 173.578 85.4368 172.617 86.5357 171.38C87.669 170.144 88.5276 168.667 89.1114 166.95C89.6952 165.199 89.9871 163.275 89.9871 161.181V137.587H88.1327V161.387C88.1327 163.104 87.8579 164.718 87.3084 166.229C86.7933 167.706 86.0549 168.993 85.0934 170.092C84.1317 171.157 82.9641 171.998 81.5904 172.617C80.2511 173.235 78.74 173.544 77.0572 173.544C75.3744 173.544 73.8462 173.235 72.4725 172.617C71.0988 171.998 69.9312 171.157 68.9696 170.092C68.008 168.993 67.2696 167.706 66.7545 166.229C66.2393 164.718 65.9818 163.104 65.9818 161.387V137.587H64.1273V161.181C64.1273 163.275 64.4364 165.199 65.0545 166.95C65.6727 168.667 66.5312 170.144 67.6302 171.38C68.7635 172.617 70.1201 173.578 71.6998 174.265ZM99.3075 137.587H97.453V174.471H99.3075V137.587ZM109.62 137.587H107.766V174.471H127.032V172.72H109.62V137.587ZM142.816 137.587H132.667V174.471H142.816C145.735 174.471 148.328 174.025 150.594 173.132C152.895 172.239 154.818 170.985 156.364 169.371C157.943 167.757 159.145 165.817 159.97 163.55C160.794 161.284 161.206 158.777 161.206 156.029C161.206 153.282 160.794 150.775 159.97 148.508C159.145 146.242 157.943 144.301 156.364 142.687C154.818 141.073 152.895 139.82 150.594 138.927C148.328 138.034 145.735 137.587 142.816 137.587ZM149.564 171.586C147.538 172.342 145.288 172.72 142.816 172.72H134.522V139.339H142.816C145.288 139.339 147.538 139.717 149.564 140.472C151.624 141.228 153.376 142.327 154.818 143.769C156.261 145.177 157.377 146.911 158.167 148.972C158.957 151.032 159.351 153.385 159.351 156.029C159.351 158.674 158.957 161.026 158.167 163.087C157.377 165.147 156.261 166.899 154.818 168.341C153.376 169.749 151.624 170.831 149.564 171.586ZM169.434 155.153V139.339H187.67V137.587H167.58V174.471H187.67V172.72H169.434V156.905H186.022V155.153H169.434ZM206.795 137.587H194.947V174.471H196.801V158.708H206.177L216.994 174.471H218.952V174.265L208.237 158.553L208.34 158.399C209.645 158.09 210.864 157.643 211.998 157.059C213.131 156.441 214.11 155.703 214.934 154.844C215.758 153.951 216.411 152.938 216.891 151.805C217.372 150.672 217.613 149.453 217.613 148.148C217.613 146.602 217.338 145.177 216.788 143.872C216.239 142.567 215.466 141.451 214.47 140.524C213.509 139.596 212.375 138.875 211.07 138.36C209.765 137.845 208.34 137.587 206.795 137.587ZM209.731 156.338C208.563 156.75 207.344 156.956 206.074 156.956H196.801V139.339H206.486C207.653 139.339 208.787 139.545 209.886 139.957C211.019 140.335 212.015 140.901 212.873 141.657C213.766 142.378 214.47 143.288 214.985 144.387C215.501 145.486 215.758 146.74 215.758 148.148C215.758 149.453 215.483 150.655 214.934 151.754C214.419 152.818 213.715 153.745 212.822 154.535C211.929 155.291 210.899 155.892 209.731 156.338Z" fill="white"/>
</svg>
